<?xml version="1.0" encoding="utf-8"?>
<!-- Generator: Adobe Illustrator 25.1.0, SVG Export Plug-In . SVG Version: 6.00 Build 0)  -->
<svg version="1.1" id="Capa_1" xmlns="http://www.w3.org/2000/svg" xmlns:xlink="http://www.w3.org/1999/xlink" x="0px" y="0px"
	 viewBox="0 0 400 55" style="enable-background:new 0 0 400 55;" xml:space="preserve">
<style type="text/css">
	.st0{fill:#CC0000;}
	.st1{fill:#FFFFFF;}
	.st2{fill:#0D141E;}
</style>
<g>
	<g>
		<polygon class="st0" points="315.7,30.9 128.7,30.9 133.9,5.1 322.1,5.1 		"/>
		<g>
			<path class="st1" d="M137.7,21.9l0.9-3.9h1.5l-0.5,3.9l-0.5,2.9h-1.9L137.7,21.9z M138.9,16.5c-0.2-0.2-0.4-0.5-0.4-0.9
				c0-0.3,0.1-0.6,0.4-0.9c0.2-0.2,0.5-0.4,0.9-0.4c0.3,0,0.6,0.1,0.9,0.4c0.2,0.2,0.3,0.5,0.3,0.9c0,0.3-0.1,0.6-0.3,0.9
				c-0.2,0.2-0.5,0.4-0.9,0.4S139.1,16.8,138.9,16.5z"/>
			<path class="st1" d="M143.2,11.8h6.3l-0.3,1.8h-4.5l-0.4,2.3h4l-0.3,1.8h-4l-0.4,2.3h4.5l-0.3,1.8h-6.3L143.2,11.8z"/>
			<path class="st1" d="M150.6,21.3c-0.6-0.5-1-1.2-1.2-2.1l1.8-0.7c0,0.5,0.2,0.9,0.5,1.3c0.3,0.3,0.7,0.5,1.2,0.5
				c0.5,0,0.9-0.1,1.2-0.4c0.3-0.2,0.5-0.6,0.5-1c0-0.3-0.1-0.6-0.4-0.9c-0.2-0.2-0.7-0.5-1.2-0.7l-0.5-0.2c-0.6-0.2-1.1-0.6-1.5-1
				s-0.6-1-0.6-1.7c0-0.5,0.2-1,0.5-1.5c0.3-0.4,0.7-0.8,1.3-1c0.5-0.3,1.1-0.4,1.8-0.4c0.6,0,1.2,0.1,1.6,0.3
				c0.4,0.2,0.8,0.5,1,0.8c0.2,0.3,0.4,0.7,0.4,1l-1.7,0.7c-0.1-0.3-0.2-0.6-0.5-0.8c-0.3-0.2-0.6-0.3-1-0.3c-0.4,0-0.8,0.1-1,0.3
				c-0.3,0.2-0.4,0.5-0.4,0.8c0,0.3,0.1,0.5,0.3,0.8c0.2,0.2,0.6,0.4,1.1,0.6l0.6,0.2c0.7,0.3,1.2,0.6,1.6,1.1
				c0.4,0.4,0.6,1,0.6,1.7c0,0.6-0.2,1.2-0.5,1.7c-0.3,0.5-0.8,0.9-1.3,1.2c-0.6,0.3-1.2,0.4-2,0.4C152,22,151.2,21.8,150.6,21.3z"
				/>
			<path class="st1" d="M161.2,13.6h-2.8l0.3-1.8h7.4l-0.3,1.8h-2.8l-1.5,8.2h-1.9L161.2,13.6z"/>
			<path class="st1" d="M169.6,11.8h2.2l2,10h-2l-0.4-2.4h-3.8l-1.3,2.4h-2.1L169.6,11.8z M171,17.7l-0.5-2.5l-0.2-1.2h-0.1
				l-0.6,1.2l-1.3,2.5H171z"/>
			<path class="st1" d="M176.9,11.8h2.4l1.4,7h0.1l3.9-7h2.5l-1.8,10h-1.9l0.9-4.9l0.4-1.7h-0.1l-3.7,6.6h-1.5l-1.4-6.6H178
				l-0.2,1.7l-0.9,4.9h-1.9L176.9,11.8z"/>
			<path class="st1" d="M190.1,21.4c-0.7-0.4-1.3-0.9-1.7-1.6c-0.4-0.7-0.6-1.5-0.6-2.4c0-1,0.3-2,0.7-2.9c0.5-0.9,1.2-1.6,2.1-2.1
				c0.9-0.5,1.9-0.8,3.1-0.8c0.9,0,1.7,0.2,2.4,0.6c0.7,0.4,1.3,0.9,1.7,1.7c0.4,0.7,0.6,1.5,0.6,2.4c0,1-0.3,2-0.7,2.9
				c-0.5,0.9-1.2,1.6-2.1,2.1c-0.9,0.5-1.9,0.8-3.1,0.8C191.7,22,190.9,21.8,190.1,21.4z M194.7,19.7c0.6-0.3,1-0.8,1.4-1.4
				c0.3-0.6,0.5-1.3,0.5-2c0-0.6-0.1-1.1-0.4-1.5c-0.3-0.4-0.6-0.8-1.1-1c-0.5-0.2-1-0.4-1.5-0.4c-0.7,0-1.4,0.2-2,0.5
				c-0.6,0.3-1,0.8-1.4,1.4c-0.3,0.6-0.5,1.3-0.5,2c0,0.6,0.1,1.1,0.4,1.5c0.3,0.4,0.6,0.8,1.1,1c0.5,0.3,1,0.4,1.5,0.4
				C193.4,20.2,194.1,20.1,194.7,19.7z"/>
			<path class="st1" d="M200.2,21.3c-0.6-0.5-1-1.2-1.2-2.1l1.8-0.7c0,0.5,0.2,0.9,0.5,1.3c0.3,0.3,0.7,0.5,1.2,0.5
				c0.5,0,0.9-0.1,1.2-0.4c0.3-0.2,0.5-0.6,0.5-1c0-0.3-0.1-0.6-0.4-0.9c-0.2-0.2-0.7-0.5-1.2-0.7l-0.5-0.2c-0.6-0.2-1.1-0.6-1.5-1
				c-0.4-0.4-0.6-1-0.6-1.7c0-0.5,0.2-1,0.5-1.5s0.7-0.8,1.3-1c0.5-0.3,1.1-0.4,1.8-0.4c0.6,0,1.2,0.1,1.6,0.3
				c0.4,0.2,0.8,0.5,1,0.8c0.2,0.3,0.4,0.7,0.4,1l-1.7,0.7c-0.1-0.3-0.2-0.6-0.5-0.8c-0.3-0.2-0.6-0.3-1-0.3c-0.4,0-0.8,0.1-1,0.3
				c-0.3,0.2-0.4,0.5-0.4,0.8c0,0.3,0.1,0.5,0.3,0.8c0.2,0.2,0.6,0.4,1.1,0.6l0.6,0.2c0.7,0.3,1.2,0.6,1.6,1.1
				c0.4,0.4,0.6,1,0.6,1.7c0,0.6-0.2,1.2-0.5,1.7c-0.3,0.5-0.8,0.9-1.3,1.2c-0.6,0.3-1.2,0.4-2,0.4C201.6,22,200.8,21.8,200.2,21.3z
				"/>
			<path class="st1" d="M212.3,11.8h6.3l-0.3,1.8h-4.5l-0.4,2.3h4l-0.3,1.8h-4l-0.4,2.3h4.5l-0.3,1.8h-6.3L212.3,11.8z"/>
			<path class="st1" d="M220.6,11.8h2.1l2.9,6.7h0.1l0.2-1.9l0.9-4.8h1.9l-1.8,10H225l-3.1-7.1h-0.1l-0.2,1.9l-0.9,5.2h-1.9
				L220.6,11.8z"/>
			<path class="st1" d="M232.7,13.6h-2.8l0.3-1.8h7.4l-0.3,1.8h-2.8l-1.5,8.2h-1.9L232.7,13.6z"/>
			<path class="st1" d="M239.2,11.8h3.3c0.6,0,1.2,0.1,1.7,0.4c0.5,0.3,0.9,0.6,1.1,1c0.3,0.4,0.4,0.9,0.4,1.4c0,0.5-0.1,1-0.3,1.5
				c-0.2,0.4-0.5,0.8-0.9,1.1c-0.4,0.3-0.8,0.5-1.3,0.6l0,0.1l2,3.8l0,0.1h-2.1l-1.9-3.8h-1l-0.7,3.8h-1.9L239.2,11.8z M242,16.3
				c0.5,0,0.9-0.1,1.3-0.4c0.3-0.3,0.5-0.6,0.5-1.1c0-0.4-0.1-0.7-0.4-0.9c-0.3-0.2-0.6-0.3-1-0.3h-1.6l-0.5,2.8L242,16.3L242,16.3z
				"/>
			<path class="st1" d="M248,11.8h6.3l-0.3,1.8h-4.5l-0.4,2.3h4l-0.3,1.8h-4l-0.4,2.3h4.5l-0.3,1.8h-6.3L248,11.8z"/>
			<path class="st1" d="M256.9,21.4c-0.7-0.4-1.3-1-1.7-1.7c-0.4-0.7-0.6-1.5-0.6-2.5c0-1,0.3-1.9,0.8-2.8c0.5-0.9,1.2-1.6,2.1-2.1
				c0.9-0.5,2-0.8,3.1-0.8c0.8,0,1.6,0.1,2.2,0.4s1.2,0.7,1.6,1.2l-1.5,1.3c-0.2-0.3-0.6-0.6-1-0.8c-0.4-0.2-0.9-0.3-1.4-0.3
				c-0.7,0-1.4,0.2-2,0.5c-0.6,0.3-1.1,0.8-1.4,1.4c-0.3,0.6-0.5,1.2-0.5,2c0,0.6,0.1,1.1,0.4,1.6c0.3,0.5,0.6,0.8,1.1,1.1
				c0.5,0.2,1,0.4,1.6,0.4c0.9,0,1.7-0.3,2.3-0.8c0.4-0.4,0.8-0.9,1-1.5h-3.1l0.3-1.6h4.9c0,0.1,0,0.2,0,0.3c0,0.8-0.2,1.6-0.4,2.3
				s-0.7,1.3-1.3,1.8c-0.5,0.4-1.1,0.8-1.7,1c-0.6,0.2-1.3,0.4-2.1,0.4C258.4,22,257.6,21.8,256.9,21.4z"/>
			<path class="st1" d="M270.2,11.8h2.2l2,10h-2l-0.4-2.4h-3.8l-1.3,2.4h-2.1L270.2,11.8z M271.6,17.7l-0.5-2.5L271,14h-0.1
				l-0.6,1.2l-1.3,2.5H271.6z"/>
			<path class="st1" d="M277.5,11.8h2.1l2.9,6.7h0.1l0.2-1.9l0.9-4.8h1.9l-1.8,10h-1.9l-3.1-7.1h-0.1l-0.2,1.9l-0.9,5.2h-1.9
				L277.5,11.8z"/>
			<path class="st1" d="M287.8,11.8h3.2c1,0,1.8,0.2,2.5,0.6c0.7,0.4,1.2,0.9,1.6,1.5c0.3,0.7,0.5,1.4,0.5,2.3c0,1-0.2,1.9-0.7,2.8
				c-0.5,0.9-1.2,1.5-2.1,2c-0.9,0.5-2,0.8-3.1,0.8H286L287.8,11.8z M289.7,20c0.8,0,1.5-0.2,2.1-0.5c0.6-0.3,1.1-0.7,1.4-1.3
				s0.5-1.2,0.5-1.9c0-0.9-0.2-1.6-0.7-2.1c-0.5-0.5-1.2-0.7-2.1-0.7h-1.4l-1.1,6.4H289.7z"/>
			<path class="st1" d="M299,21.4c-0.7-0.4-1.3-0.9-1.7-1.6c-0.4-0.7-0.6-1.5-0.6-2.4c0-1,0.3-2,0.7-2.9c0.5-0.9,1.2-1.6,2.1-2.1
				c0.9-0.5,1.9-0.8,3.1-0.8c0.9,0,1.7,0.2,2.4,0.6c0.7,0.4,1.3,0.9,1.7,1.7c0.4,0.7,0.6,1.5,0.6,2.4c0,1-0.3,2-0.7,2.9
				c-0.5,0.9-1.2,1.6-2.1,2.1c-0.9,0.5-1.9,0.8-3.1,0.8C300.5,22,299.7,21.8,299,21.4z M303.5,19.7c0.6-0.3,1-0.8,1.4-1.4
				c0.3-0.6,0.5-1.3,0.5-2c0-0.6-0.1-1.1-0.4-1.5c-0.3-0.4-0.6-0.8-1.1-1c-0.5-0.3-1-0.4-1.5-0.4c-0.7,0-1.4,0.2-2,0.5
				c-0.6,0.3-1,0.8-1.4,1.4c-0.3,0.6-0.5,1.3-0.5,2c0,0.6,0.1,1.1,0.4,1.5c0.3,0.4,0.6,0.8,1.1,1c0.5,0.3,1,0.4,1.5,0.4
				C302.3,20.2,302.9,20.1,303.5,19.7z"/>
			<path class="st1" d="M308.2,21.5c-0.2-0.2-0.3-0.5-0.3-0.9c0-0.3,0.1-0.6,0.3-0.9c0.2-0.2,0.5-0.3,0.9-0.3c0.3,0,0.6,0.1,0.9,0.3
				c0.2,0.2,0.4,0.5,0.4,0.9c0,0.3-0.1,0.6-0.4,0.9c-0.2,0.2-0.5,0.4-0.9,0.4C308.7,21.9,308.4,21.8,308.2,21.5z M309.2,14.7
				l0.5-2.9h1.9l-0.5,2.9l-0.8,3.7h-1.5L309.2,14.7z"/>
		</g>
	</g>
	<g>
		<g>
			<path class="st2" d="M111.2,8.5c-0.7-0.5-0.9-0.9-0.7-1.5c0.7-2.9,3.8-4.5,6.6-3.4c1.9,0.8,2,3.1,0.7,4.8
				c-0.9,1.2-1.9,2.2-3.1,2.3c-1.5,0.1-2.1,1.2-3,2c1.3-0.1,2.6,0,3.5-1.2c0.5-0.6,1.5-0.5,1.6,0c0.2,1.2,1,0.8,1.6,0.9
				c0.6,0.1,0.9,0.6,0.8,1.1c-0.1,0.9-0.3,1.9-1.6,1.8c0.5,1.3,1.1,2.6,1.1,4c0,0.7,0.4,0.7,0.9,0.6c0.9-0.1,1.7,0.2,2.4,0.8
				c0.6,0.5,1.2,1.2,1,1.9c-0.2,0.7-1.1,0-1.6,0.4c1.2,3.5-1.2,6.9-4.9,7c-2,0.1-3-0.9-3-2.9c0-0.9-0.3-1.1-1.1-1.1c-4,0-8,0-12,0
				c-0.8,0-1.3,0.4-1.6,1.1c-0.9,2-2.9,3.1-5.1,2.9c-1.5-0.2-2.4-1.2-2.4-2.9c0-0.6,0.1-1.1-0.8-1.1c-1,0-0.9-0.6-0.7-1.3
				c0.6-1.9,1.5-3.6,3-5c0.6-0.6,0.8-0.9,0.2-1.6c-0.5-0.5-0.3-1,0.6-1c1.8,0,3.6,0,5.4,0c0.7,0,1-0.1,1-0.9
				c0.1-1.4,0.9-2.3,1.9-3.2C104.4,10.8,107.6,9.6,111.2,8.5z M108.1,12.6c-0.5,0.5-1.1,0.9-1.6,1.4c-0.2,0.2-0.3,0.6-0.1,0.8
				c0.1,0.1,0.5,0,0.8-0.1c0.8-0.3,0.7-1.3,1.2-1.9c0.1-0.1,0.4-0.3,0.2-0.4C108.3,12.3,108.1,12.4,108.1,12.6z M114.8,13.4
				c-1.7,0.3-3.1,1.3-4.8,1.4c-0.3,0-0.7-0.1-0.7,0.3c0,0.3,0.3,0.7,0.7,0.7c0.8-0.1,1.5,0.3,2.2,0.6c1.6,0.6,1.7,1.4,0.3,2.5
				c-1.1,0.9-2.2,1.7-3.2,2.5c-1.4,1.1-1.4,1.1,0.1,1.9c0.3,0.1,0.6,0.3,0.7,0.6c0.2,0.7,0.6,0.6,0.9,0.3c1.1-1.1,2.4-2,2.9-3.4
				C114.6,18.4,115.1,16,114.8,13.4z M109.2,18.7c-1.3-0.1-2.7-0.9-3.4,0.2c-0.8,1.2-1.8,2.2-2.5,3.4c-0.2,0.5-0.4,0.9-0.4,1.4
				c0,0.3,0,0.6,0.5,0.6c0.3,0,0.7,0.2,0.8-0.4c0.1-0.9,0.9-1.5,1.5-2C106.8,20.8,108,19.8,109.2,18.7z M117.8,24.4
				c-0.9,0-2,1.1-2,2.2c0,0.8,0.4,1.4,1.2,1.5c0.8,0.1,2.2-1.5,2.2-2.4C119.2,24.7,118.7,24.4,117.8,24.4z M95.4,25.9
				c-0.6,0.3-1.6-0.5-1.7,0.7c0,0.7,0.5,1.4,1.1,1.4c0.9-0.1,1.9-0.8,2-1.6C96.9,25.4,95.8,26.3,95.4,25.9z M95.7,20.9
				c1.3-0.1,2.8,0.2,4-1.1C98,19.5,96.8,20.3,95.7,20.9z"/>
			<path class="st2" d="M99.6,11.4c0,1.2,0,2.4,0,3.5c0.1,1.1-0.5,1.5-1.6,1.5c-2.3,0-4.6,0-6.9,0c-1,0-1.5-0.4-1.5-1.4
				c0-2.5,0-4.9,0-7.4c0-1.1,0.5-1.5,1.5-1.5c2.3,0,4.7,0,7.1,0c1.1,0,1.4,0.5,1.4,1.5C99.6,9,99.6,10.2,99.6,11.4z M91.4,7.6
				c-0.2,0-0.3,0-0.5,0c0,2.5-0.2,5,0.1,7.5c0.1,0,0.3,0,0.4,0C91.4,12.6,91.4,10.1,91.4,7.6z"/>
			<path class="st2" d="M86.4,18.6c-1.1,0-2.1,0-3.2,0c-0.3,0-0.5-0.1-0.5-0.4c0-0.3,0.3-0.4,0.5-0.4c2.2,0,4.4,0,6.6,0
				c0.3,0,0.7,0.1,0.6,0.5c-0.1,0.4-0.5,0.3-0.7,0.3C88.6,18.6,87.5,18.6,86.4,18.6L86.4,18.6z"/>
			<path class="st2" d="M83.9,21.8c-1.1,0-2.2,0-3.2,0c-0.3,0-0.5-0.1-0.6-0.4c0-0.3,0.3-0.4,0.5-0.4c2.2,0,4.5,0,6.7,0
				c0.3,0,0.5,0.1,0.4,0.5c-0.1,0.3-0.3,0.4-0.6,0.4C86.2,21.8,85.1,21.8,83.9,21.8L83.9,21.8z"/>
			<path class="st2" d="M81.8,25.3c-1.1,0-2.2,0-3.4,0c-0.3,0-0.5,0-0.5-0.4c0-0.3,0.3-0.4,0.5-0.4c2.2,0,4.4,0,6.6,0
				c0.3,0,0.7,0,0.6,0.5c0,0.3-0.3,0.3-0.6,0.3C83.9,25.4,82.9,25.3,81.8,25.3C81.8,25.3,81.8,25.3,81.8,25.3z"/>
		</g>
	</g>
</g>
<g>
	<g>
		<path d="M21,44.3h-2.8l0.3-1.9h2.8l0.5-2.8h1.9l-0.5,2.8H26l-0.3,1.9h-2.8L22.4,47h-1.9L21,44.3z"/>
		<path d="M29.4,36.1h2.2l-2.1,11.6h-2.2L29.4,36.1z"/>
		<path d="M34.2,36.1h2.4l3.4,7.8h0.1l0.3-2.2l1-5.6h2.2l-2.1,11.6h-2.2l-3.6-8.2h-0.1l-0.3,2.2l-1.1,6h-2.2L34.2,36.1z"/>
		<path d="M46.3,36.1h7.4l-0.4,2.1h-5.2L47.6,41h4.7l-0.4,2.1h-4.7l-0.8,4.6h-2.2L46.3,36.1z"/>
		<path d="M56.4,47.3c-0.8-0.4-1.5-1.1-2-1.9c-0.5-0.8-0.7-1.8-0.7-2.8c0-1.2,0.3-2.3,0.9-3.4c0.6-1,1.4-1.9,2.5-2.5
			s2.2-0.9,3.6-0.9c1.1,0,2,0.2,2.8,0.7c0.8,0.5,1.5,1.1,2,1.9c0.5,0.8,0.7,1.7,0.7,2.8c0,1.2-0.3,2.3-0.9,3.4
			c-0.6,1-1.4,1.9-2.4,2.5c-1,0.6-2.2,0.9-3.6,0.9C58.2,48,57.2,47.8,56.4,47.3z M61.7,45.3c0.7-0.4,1.2-1,1.6-1.7
			c0.4-0.7,0.6-1.5,0.6-2.3c0-0.7-0.2-1.2-0.5-1.7c-0.3-0.5-0.7-0.9-1.2-1.2c-0.5-0.3-1.1-0.4-1.8-0.4c-0.8,0-1.6,0.2-2.3,0.6
			s-1.2,1-1.6,1.7c-0.4,0.7-0.6,1.5-0.6,2.3c0,0.7,0.2,1.2,0.5,1.8c0.3,0.5,0.7,0.9,1.2,1.2c0.5,0.3,1.1,0.4,1.8,0.4
			C60.2,45.9,61,45.7,61.7,45.3z"/>
		<path d="M72.9,39.6l2.8,3.7l-4.1,3.7l-1.1-1.2l2.9-2.7l-1.9-2.6L72.9,39.6z"/>
	</g>
	<g>
		<path d="M83.3,47c-0.5-0.3-0.8-0.8-1-1.4l1.4-0.6c0.1,0.4,0.3,0.6,0.6,0.8c0.3,0.2,0.6,0.3,1,0.3c0.4,0,0.7-0.1,0.9-0.2
			c0.2-0.2,0.4-0.4,0.4-0.6c0-0.2-0.1-0.4-0.2-0.6c-0.2-0.2-0.4-0.3-0.8-0.3l-0.7-0.2c-0.5-0.1-1-0.4-1.3-0.7
			c-0.3-0.3-0.5-0.7-0.5-1.2c0-0.4,0.1-0.8,0.4-1.1c0.2-0.3,0.6-0.6,1-0.8c0.4-0.2,0.9-0.3,1.5-0.3c0.6,0,1.2,0.1,1.6,0.4
			c0.5,0.3,0.8,0.7,1,1.1l-1.4,0.5c-0.1-0.3-0.3-0.5-0.5-0.6c-0.2-0.1-0.5-0.2-0.8-0.2c-0.4,0-0.7,0.1-0.9,0.2
			c-0.2,0.1-0.3,0.3-0.3,0.5c0,0.2,0.1,0.3,0.2,0.4c0.2,0.1,0.4,0.2,0.6,0.3l0.9,0.2c0.5,0.1,1,0.4,1.3,0.7s0.5,0.7,0.5,1.2
			c0,0.7-0.3,1.3-0.8,1.7c-0.5,0.4-1.2,0.6-2.1,0.6C84.4,47.6,83.8,47.4,83.3,47z"/>
		<path d="M90.8,47.1c-0.5-0.3-0.9-0.7-1.1-1.2c-0.3-0.5-0.4-1-0.4-1.6c0-0.8,0.2-1.4,0.5-2.1c0.3-0.6,0.8-1.1,1.4-1.5
			c0.6-0.4,1.3-0.5,2.1-0.5c0.6,0,1.2,0.1,1.7,0.4c0.5,0.3,0.9,0.7,1.1,1.2c0.3,0.5,0.4,1,0.4,1.6c0,0.8-0.2,1.4-0.5,2.1
			c-0.3,0.6-0.8,1.1-1.4,1.5c-0.6,0.4-1.3,0.5-2.1,0.5C91.8,47.6,91.2,47.4,90.8,47.1z M93.8,45.9c0.4-0.2,0.6-0.5,0.9-0.9
			s0.3-0.8,0.3-1.3c0-0.6-0.2-1.1-0.5-1.4c-0.3-0.4-0.8-0.6-1.4-0.6c-0.5,0-0.9,0.1-1.2,0.3c-0.4,0.2-0.6,0.5-0.9,0.9
			c-0.2,0.4-0.3,0.8-0.3,1.3c0,0.6,0.2,1.1,0.5,1.4c0.3,0.4,0.8,0.6,1.4,0.6C93,46.2,93.4,46.1,93.8,45.9z"/>
		<path d="M99.5,47.2c-0.4-0.2-0.7-0.5-0.9-0.8h-0.1l-0.2,0.9H97l1.7-9.6h1.5l-0.5,2.7l-0.2,1h0.1c0.2-0.3,0.5-0.6,0.9-0.8
			c0.4-0.2,0.8-0.3,1.3-0.3c0.5,0,1,0.1,1.5,0.4c0.4,0.3,0.8,0.6,1,1.1c0.2,0.5,0.4,1,0.4,1.7c0,0.8-0.2,1.4-0.5,2.1
			c-0.3,0.6-0.8,1.1-1.3,1.5c-0.6,0.4-1.2,0.5-1.9,0.5C100.3,47.6,99.9,47.4,99.5,47.2z M101.9,45.9c0.4-0.2,0.7-0.5,0.9-0.9
			s0.3-0.8,0.3-1.3c0-0.6-0.2-1-0.5-1.4c-0.3-0.4-0.8-0.6-1.3-0.6c-0.4,0-0.8,0.1-1.2,0.4s-0.6,0.6-0.8,1s-0.3,0.8-0.3,1.3
			c0,0.6,0.2,1,0.5,1.4c0.3,0.3,0.8,0.5,1.2,0.5C101.1,46.2,101.5,46.1,101.9,45.9z"/>
		<path d="M106.4,40.5h1.4l-0.2,0.9h0.1c0.2-0.3,0.5-0.6,0.9-0.8c0.4-0.2,0.8-0.3,1.3-0.3c0.3,0,0.6,0,0.8,0.1l-0.3,1.6
			c-0.1-0.1-0.3-0.1-0.5-0.2c-0.2,0-0.4-0.1-0.5-0.1c-0.5,0-1,0.2-1.4,0.6c-0.4,0.4-0.7,0.8-0.8,1.4l-0.6,3.6h-1.5L106.4,40.5z"/>
		<path d="M111.9,47.1c-0.5-0.3-0.8-0.7-1.1-1.2c-0.3-0.5-0.4-1-0.4-1.6c0-0.7,0.2-1.4,0.5-2c0.3-0.6,0.8-1.1,1.4-1.5
			c0.6-0.4,1.3-0.6,2.1-0.6c0.6,0,1.1,0.1,1.6,0.4s0.8,0.6,1,1.1c0.2,0.4,0.3,0.9,0.3,1.4c0,0.4,0,0.8-0.1,1.1h-5.3
			c0,0.1,0,0.2,0,0.3c0,0.5,0.2,0.9,0.5,1.2c0.3,0.3,0.8,0.5,1.2,0.5c0.5,0,0.9-0.1,1.2-0.3c0.3-0.2,0.6-0.5,0.8-0.8l1.1,0.6
			c-0.7,1.2-1.8,1.8-3.3,1.8C112.9,47.6,112.3,47.4,111.9,47.1z M115.8,43.1V43c0-0.4-0.1-0.7-0.4-1s-0.7-0.4-1.2-0.4
			s-0.9,0.1-1.3,0.4c-0.4,0.3-0.6,0.7-0.8,1.1H115.8z"/>
		<path d="M122.8,37.7h1.5l-1.4,8.2h4.1l-0.3,1.4h-5.6L122.8,37.7z"/>
		<path d="M129.6,47.1c-0.5-0.3-0.9-0.7-1.1-1.2c-0.3-0.5-0.4-1-0.4-1.6c0-0.8,0.2-1.4,0.5-2.1c0.3-0.6,0.8-1.1,1.4-1.5
			c0.6-0.4,1.3-0.5,2.1-0.5c0.6,0,1.2,0.1,1.7,0.4c0.5,0.3,0.9,0.7,1.1,1.2c0.3,0.5,0.4,1,0.4,1.6c0,0.8-0.2,1.4-0.5,2.1
			c-0.3,0.6-0.8,1.1-1.4,1.5c-0.6,0.4-1.3,0.5-2.1,0.5C130.6,47.6,130.1,47.4,129.6,47.1z M132.6,45.9c0.4-0.2,0.6-0.5,0.9-0.9
			s0.3-0.8,0.3-1.3c0-0.6-0.2-1.1-0.5-1.4c-0.3-0.4-0.8-0.6-1.4-0.6c-0.5,0-0.9,0.1-1.2,0.3c-0.4,0.2-0.6,0.5-0.9,0.9
			c-0.2,0.4-0.3,0.8-0.3,1.3c0,0.6,0.2,1.1,0.5,1.4c0.3,0.4,0.8,0.6,1.4,0.6C131.9,46.2,132.3,46.1,132.6,45.9z"/>
		<path d="M137.6,47.1c-0.5-0.3-0.8-0.7-1.1-1.2s-0.4-1-0.4-1.6c0-0.7,0.2-1.4,0.5-2c0.3-0.6,0.8-1.1,1.4-1.5
			c0.6-0.4,1.3-0.5,2.1-0.5c0.7,0,1.4,0.2,1.9,0.5c0.5,0.4,0.8,0.8,1,1.4l-1.4,0.5c-0.1-0.3-0.3-0.6-0.6-0.8c-0.3-0.2-0.6-0.3-1-0.3
			c-0.4,0-0.8,0.1-1.2,0.3c-0.4,0.2-0.6,0.5-0.9,0.9c-0.2,0.4-0.3,0.8-0.3,1.3c0,0.6,0.2,1,0.5,1.4c0.3,0.4,0.8,0.6,1.3,0.6
			c0.4,0,0.8-0.1,1.1-0.3c0.3-0.2,0.6-0.5,0.8-0.8l1.2,0.6c-0.7,1.3-1.8,1.9-3.3,1.9C138.6,47.6,138,47.4,137.6,47.1z"/>
		<path d="M144.7,47.3c-0.3-0.2-0.6-0.4-0.8-0.8c-0.2-0.3-0.3-0.7-0.3-1.1c0-0.8,0.3-1.4,0.8-1.8c0.5-0.4,1.3-0.7,2.3-0.7
			c0.3,0,0.7,0,1,0.1c0.3,0.1,0.6,0.2,0.9,0.3l0.1-0.3c0-0.1,0-0.2,0-0.3c0-0.3-0.1-0.6-0.4-0.8s-0.6-0.3-1.1-0.3
			c-0.7,0-1.3,0.3-1.7,0.8l-1.1-0.8c0.3-0.4,0.8-0.7,1.3-1s1.1-0.3,1.7-0.3c0.9,0,1.5,0.2,2,0.6c0.5,0.4,0.7,1,0.7,1.6
			c0,0.2,0,0.4-0.1,0.7l-0.7,4.1h-1.4l0.1-0.8h-0.1c-0.2,0.3-0.5,0.6-0.9,0.8c-0.3,0.2-0.8,0.3-1.2,0.3
			C145.4,47.6,145,47.5,144.7,47.3z M147.6,45.8c0.4-0.3,0.6-0.8,0.7-1.3c-0.3-0.1-0.5-0.2-0.7-0.3s-0.6-0.1-0.9-0.1
			c-0.5,0-0.9,0.1-1.2,0.3c-0.3,0.2-0.4,0.5-0.4,0.9c0,0.3,0.1,0.5,0.3,0.7c0.2,0.2,0.5,0.3,0.8,0.3
			C146.8,46.3,147.2,46.2,147.6,45.8z"/>
		<path d="M152.3,37.7h1.5l-1.7,9.6h-1.5L152.3,37.7z"/>
		<path d="M155.4,47.1c-0.5-0.3-0.8-0.7-1.1-1.2c-0.3-0.5-0.4-1-0.4-1.6c0-0.7,0.2-1.4,0.5-2c0.3-0.6,0.8-1.1,1.4-1.5
			c0.6-0.4,1.3-0.6,2.1-0.6c0.6,0,1.1,0.1,1.6,0.4s0.8,0.6,1,1.1c0.2,0.4,0.3,0.9,0.3,1.4c0,0.4,0,0.8-0.1,1.1h-5.3
			c0,0.1,0,0.2,0,0.3c0,0.5,0.2,0.9,0.5,1.2c0.3,0.3,0.8,0.5,1.2,0.5c0.5,0,0.9-0.1,1.2-0.3c0.3-0.2,0.6-0.5,0.8-0.8l1.1,0.6
			c-0.7,1.2-1.8,1.8-3.3,1.8C156.4,47.6,155.9,47.4,155.4,47.1z M159.4,43.1V43c0-0.4-0.1-0.7-0.4-1s-0.7-0.4-1.2-0.4
			s-0.9,0.1-1.3,0.4c-0.4,0.3-0.6,0.7-0.8,1.1H159.4z"/>
		<path d="M162.4,47c-0.5-0.3-0.8-0.8-1-1.4l1.4-0.6c0.1,0.4,0.3,0.6,0.6,0.8c0.3,0.2,0.6,0.3,1,0.3c0.4,0,0.7-0.1,0.9-0.2
			c0.2-0.2,0.4-0.4,0.4-0.6c0-0.2-0.1-0.4-0.2-0.6c-0.2-0.2-0.4-0.3-0.8-0.3l-0.7-0.2c-0.5-0.1-1-0.4-1.3-0.7
			c-0.3-0.3-0.5-0.7-0.5-1.2c0-0.4,0.1-0.8,0.4-1.1c0.2-0.3,0.6-0.6,1-0.8c0.4-0.2,0.9-0.3,1.5-0.3c0.6,0,1.2,0.1,1.6,0.4
			c0.5,0.3,0.8,0.7,1,1.1l-1.4,0.5c-0.1-0.3-0.3-0.5-0.5-0.6c-0.2-0.1-0.5-0.2-0.8-0.2c-0.4,0-0.7,0.1-0.9,0.2
			c-0.2,0.1-0.3,0.3-0.3,0.5c0,0.2,0.1,0.3,0.2,0.4c0.2,0.1,0.4,0.2,0.6,0.3l0.9,0.2c0.5,0.1,1,0.4,1.3,0.7s0.5,0.7,0.5,1.2
			c0,0.7-0.3,1.3-0.8,1.7c-0.5,0.4-1.2,0.6-2.1,0.6C163.5,47.6,162.9,47.4,162.4,47z"/>
		<path d="M168.6,47.3c-0.4-0.2-0.5-0.5-0.5-0.9c0-0.3,0.1-0.5,0.3-0.7c0.2-0.2,0.4-0.3,0.7-0.3c0.3,0,0.5,0.1,0.7,0.3
			c0.2,0.2,0.3,0.4,0.3,0.7c0,0.2,0,0.3-0.1,0.4s-0.2,0.3-0.4,0.5l-1.3,1.6l-0.6-0.5L168.6,47.3z"/>
		<path d="M176.2,37.7h1.5l-0.7,4h4.5l0.7-4h1.5l-1.7,9.6h-1.5l0.7-4.2h-4.5l-0.7,4.2h-1.5L176.2,37.7z"/>
		<path d="M185.6,47.1c-0.5-0.3-0.9-0.7-1.1-1.2c-0.3-0.5-0.4-1-0.4-1.6c0-0.8,0.2-1.4,0.5-2.1c0.3-0.6,0.8-1.1,1.4-1.5
			c0.6-0.4,1.3-0.5,2.1-0.5c0.6,0,1.2,0.1,1.7,0.4c0.5,0.3,0.9,0.7,1.1,1.2c0.3,0.5,0.4,1,0.4,1.6c0,0.8-0.2,1.4-0.5,2.1
			c-0.3,0.6-0.8,1.1-1.4,1.5c-0.6,0.4-1.3,0.5-2.1,0.5C186.6,47.6,186,47.4,185.6,47.1z M188.6,45.9c0.4-0.2,0.6-0.5,0.9-0.9
			s0.3-0.8,0.3-1.3c0-0.6-0.2-1.1-0.5-1.4c-0.3-0.4-0.8-0.6-1.4-0.6c-0.5,0-0.9,0.1-1.2,0.3c-0.4,0.2-0.6,0.5-0.9,0.9
			c-0.2,0.4-0.3,0.8-0.3,1.3c0,0.6,0.2,1.1,0.5,1.4c0.3,0.4,0.8,0.6,1.4,0.6C187.8,46.2,188.2,46.1,188.6,45.9z"/>
		<path d="M192.9,40.5h1.4l-0.2,0.9h0.1c0.2-0.3,0.5-0.6,0.9-0.8c0.4-0.2,0.8-0.3,1.3-0.3c0.3,0,0.6,0,0.8,0.1L197,42
			c-0.1-0.1-0.3-0.1-0.5-0.2c-0.2,0-0.4-0.1-0.5-0.1c-0.5,0-1,0.2-1.4,0.6c-0.4,0.4-0.7,0.8-0.8,1.4l-0.6,3.6h-1.5L192.9,40.5z"/>
		<path d="M198.3,47.3c-0.3-0.2-0.6-0.4-0.8-0.8c-0.2-0.3-0.3-0.7-0.3-1.1c0-0.8,0.3-1.4,0.8-1.8c0.5-0.4,1.3-0.7,2.3-0.7
			c0.3,0,0.7,0,1,0.1c0.3,0.1,0.6,0.2,0.9,0.3l0.1-0.3c0-0.1,0-0.2,0-0.3c0-0.3-0.1-0.6-0.4-0.8c-0.3-0.2-0.6-0.3-1.1-0.3
			c-0.7,0-1.3,0.3-1.7,0.8l-1.1-0.8c0.3-0.4,0.8-0.7,1.3-1s1.1-0.3,1.7-0.3c0.9,0,1.5,0.2,2,0.6c0.5,0.4,0.7,1,0.7,1.6
			c0,0.2,0,0.4-0.1,0.7l-0.7,4.1h-1.4l0.1-0.8h-0.1c-0.2,0.3-0.5,0.6-0.9,0.8c-0.3,0.2-0.8,0.3-1.2,0.3
			C199,47.6,198.6,47.5,198.3,47.3z M201.2,45.8c0.4-0.3,0.6-0.8,0.7-1.3c-0.2-0.1-0.5-0.2-0.7-0.3c-0.2-0.1-0.6-0.1-0.9-0.1
			c-0.5,0-0.9,0.1-1.2,0.3c-0.3,0.2-0.4,0.5-0.4,0.9c0,0.3,0.1,0.5,0.3,0.7c0.2,0.2,0.5,0.3,0.8,0.3
			C200.4,46.3,200.8,46.2,201.2,45.8z"/>
		<path d="M205.4,40.5h1.4l-0.2,0.9h0.1c0.2-0.3,0.5-0.6,0.9-0.8c0.4-0.2,0.8-0.3,1.3-0.3c0.3,0,0.6,0,0.8,0.1l-0.3,1.6
			c-0.1-0.1-0.3-0.1-0.5-0.2s-0.4-0.1-0.5-0.1c-0.5,0-1,0.2-1.4,0.6c-0.4,0.4-0.7,0.8-0.8,1.4l-0.6,3.6h-1.5L205.4,40.5z"/>
		<path d="M210.9,40.5h1.5l-1.2,6.8h-1.5L210.9,40.5z M211.3,39.2c-0.2-0.2-0.3-0.4-0.3-0.7s0.1-0.5,0.3-0.7
			c0.2-0.2,0.4-0.3,0.7-0.3c0.3,0,0.5,0.1,0.7,0.3c0.2,0.2,0.3,0.4,0.3,0.7s-0.1,0.5-0.3,0.7c-0.2,0.2-0.4,0.3-0.7,0.3
			C211.7,39.5,211.5,39.4,211.3,39.2z"/>
		<path d="M214.7,47.1c-0.5-0.3-0.9-0.7-1.1-1.2c-0.3-0.5-0.4-1-0.4-1.6c0-0.8,0.2-1.4,0.5-2.1c0.3-0.6,0.8-1.1,1.4-1.5
			c0.6-0.4,1.3-0.5,2.1-0.5c0.6,0,1.2,0.1,1.7,0.4c0.5,0.3,0.9,0.7,1.1,1.2c0.3,0.5,0.4,1,0.4,1.6c0,0.8-0.2,1.4-0.5,2.1
			c-0.3,0.6-0.8,1.1-1.4,1.5c-0.6,0.4-1.3,0.5-2.1,0.5C215.7,47.6,215.2,47.4,214.7,47.1z M217.7,45.9c0.4-0.2,0.6-0.5,0.9-0.9
			s0.3-0.8,0.3-1.3c0-0.6-0.2-1.1-0.5-1.4c-0.3-0.4-0.8-0.6-1.4-0.6c-0.5,0-0.9,0.1-1.2,0.3c-0.4,0.2-0.6,0.5-0.9,0.9
			c-0.2,0.4-0.3,0.8-0.3,1.3c0,0.6,0.2,1.1,0.5,1.4s0.8,0.6,1.4,0.6C217,46.2,217.4,46.1,217.7,45.9z"/>
		<path d="M221.7,47c-0.5-0.3-0.8-0.8-1-1.4l1.4-0.6c0.1,0.4,0.3,0.6,0.6,0.8c0.3,0.2,0.6,0.3,1,0.3c0.4,0,0.7-0.1,0.9-0.2
			c0.2-0.2,0.4-0.4,0.4-0.6c0-0.2-0.1-0.4-0.2-0.6c-0.2-0.2-0.4-0.3-0.8-0.3l-0.7-0.2c-0.5-0.1-1-0.4-1.3-0.7
			c-0.3-0.3-0.5-0.7-0.5-1.2c0-0.4,0.1-0.8,0.4-1.1c0.2-0.3,0.6-0.6,1-0.8c0.4-0.2,0.9-0.3,1.5-0.3c0.6,0,1.2,0.1,1.6,0.4
			c0.5,0.3,0.8,0.7,1,1.1l-1.4,0.5c-0.1-0.3-0.3-0.5-0.5-0.6c-0.2-0.1-0.5-0.2-0.8-0.2c-0.4,0-0.7,0.1-0.9,0.2
			c-0.2,0.1-0.3,0.3-0.3,0.5c0,0.2,0.1,0.3,0.2,0.4c0.2,0.1,0.4,0.2,0.6,0.3l0.9,0.2c0.5,0.1,1,0.4,1.3,0.7s0.5,0.7,0.5,1.2
			c0,0.7-0.3,1.3-0.8,1.7c-0.5,0.4-1.2,0.6-2.1,0.6C222.9,47.6,222.2,47.4,221.7,47z"/>
		<path d="M232.7,46.9l-1.7-6.4h1.6l1.1,4.7h0.1l2.7-4.7h1.7l-6,9.7h-1.6L232.7,46.9z"/>
		<path d="M242.2,47c-0.3-0.3-0.5-0.7-0.5-1.2c0-0.2,0-0.5,0.1-0.7l0.6-3.3h-1.2l0.2-1.3h1.2l0.3-1.9h1.5l-0.3,1.9h1.7l-0.2,1.3
			h-1.7l-0.6,3.2c0,0.2,0,0.3,0,0.4c0,0.2,0.1,0.4,0.2,0.5c0.1,0.1,0.3,0.2,0.5,0.2c0.3,0,0.6-0.1,0.9-0.3l-0.2,1.4
			c-0.3,0.1-0.7,0.2-1.1,0.2C242.9,47.4,242.5,47.3,242.2,47z"/>
		<path d="M247.3,47.1c-0.5-0.3-0.8-0.7-1.1-1.2c-0.3-0.5-0.4-1-0.4-1.6c0-0.7,0.2-1.4,0.5-2c0.3-0.6,0.8-1.1,1.4-1.5
			c0.6-0.4,1.3-0.6,2.1-0.6c0.6,0,1.1,0.1,1.6,0.4c0.4,0.3,0.8,0.6,1,1.1c0.2,0.4,0.3,0.9,0.3,1.4c0,0.4,0,0.8-0.1,1.1h-5.3
			c0,0.1,0,0.2,0,0.3c0,0.5,0.2,0.9,0.5,1.2c0.3,0.3,0.8,0.5,1.2,0.5c0.5,0,0.9-0.1,1.2-0.3c0.3-0.2,0.6-0.5,0.8-0.8l1.1,0.6
			c-0.7,1.2-1.8,1.8-3.3,1.8C248.3,47.6,247.8,47.4,247.3,47.1z M251.3,43.1V43c0-0.4-0.1-0.7-0.4-1c-0.3-0.3-0.7-0.4-1.2-0.4
			s-0.9,0.1-1.3,0.4c-0.4,0.3-0.6,0.7-0.8,1.1H251.3z"/>
		<path d="M255.1,37.7h1.5l-1.7,9.6h-1.5L255.1,37.7z"/>
		<path d="M258.2,47.1c-0.5-0.3-0.8-0.7-1.1-1.2c-0.3-0.5-0.4-1-0.4-1.6c0-0.7,0.2-1.4,0.5-2c0.3-0.6,0.8-1.1,1.4-1.5
			c0.6-0.4,1.3-0.6,2.1-0.6c0.6,0,1.1,0.1,1.6,0.4c0.4,0.3,0.8,0.6,1,1.1c0.2,0.4,0.3,0.9,0.3,1.4c0,0.4,0,0.8-0.1,1.1h-5.3
			c0,0.1,0,0.2,0,0.3c0,0.5,0.2,0.9,0.5,1.2c0.3,0.3,0.8,0.5,1.2,0.5c0.5,0,0.9-0.1,1.2-0.3c0.3-0.2,0.6-0.5,0.8-0.8l1.1,0.6
			c-0.7,1.2-1.8,1.8-3.3,1.8C259.2,47.6,258.7,47.4,258.2,47.1z M262.2,43.1V43c0-0.4-0.1-0.7-0.4-1c-0.3-0.3-0.7-0.4-1.2-0.4
			s-0.9,0.1-1.3,0.4c-0.4,0.3-0.6,0.7-0.8,1.1H262.2z M261.1,37.4h1.7l-1.4,1.8h-1.3L261.1,37.4z"/>
		<path d="M265.8,41.8h-1.2l0.2-1.3h1.3l0.1-0.5c0.1-0.7,0.4-1.3,0.9-1.7c0.5-0.4,1.1-0.6,1.9-0.6c0.4,0,0.8,0.1,1,0.2l-0.3,1.4
			c-0.3-0.1-0.5-0.2-0.9-0.2c-0.3,0-0.6,0.1-0.8,0.3s-0.4,0.4-0.4,0.8l-0.1,0.4h1.7l-0.2,1.3h-1.7l-1,5.5h-1.5L265.8,41.8z"/>
		<path d="M270.8,47.1c-0.5-0.3-0.9-0.7-1.1-1.2c-0.3-0.5-0.4-1-0.4-1.6c0-0.8,0.2-1.4,0.5-2.1c0.3-0.6,0.8-1.1,1.4-1.5
			c0.6-0.4,1.3-0.5,2.1-0.5c0.6,0,1.2,0.1,1.7,0.4c0.5,0.3,0.9,0.7,1.1,1.2c0.3,0.5,0.4,1,0.4,1.6c0,0.8-0.2,1.4-0.5,2.1
			c-0.3,0.6-0.8,1.1-1.4,1.5c-0.6,0.4-1.3,0.5-2.1,0.5C271.9,47.6,271.3,47.4,270.8,47.1z M273.9,45.9c0.4-0.2,0.6-0.5,0.9-0.9
			s0.3-0.8,0.3-1.3c0-0.6-0.2-1.1-0.5-1.4c-0.3-0.4-0.8-0.6-1.4-0.6c-0.5,0-0.9,0.1-1.2,0.3c-0.4,0.2-0.6,0.5-0.9,0.9
			c-0.2,0.4-0.3,0.8-0.3,1.3c0,0.6,0.2,1.1,0.5,1.4s0.8,0.6,1.4,0.6C273.1,46.2,273.5,46.1,273.9,45.9z"/>
		<path d="M279.5,41.4c0.2-0.3,0.5-0.6,0.9-0.8s0.8-0.3,1.3-0.3c0.7,0,1.2,0.2,1.6,0.6c0.4,0.4,0.6,0.9,0.6,1.5c0,0.3,0,0.6-0.1,0.9
			l-0.7,4.1h-1.5l0.7-4c0-0.2,0.1-0.4,0.1-0.6c0-0.3-0.1-0.6-0.3-0.8s-0.5-0.3-0.9-0.3c-0.5,0-1,0.2-1.3,0.5s-0.6,0.8-0.7,1.4
			l-0.7,3.7H277l1.2-6.8h1.4L279.5,41.4L279.5,41.4z"/>
		<path d="M286.5,47.1c-0.5-0.3-0.9-0.7-1.1-1.2c-0.3-0.5-0.4-1-0.4-1.6c0-0.8,0.2-1.4,0.5-2.1c0.3-0.6,0.8-1.1,1.4-1.5
			c0.6-0.4,1.3-0.5,2.1-0.5c0.6,0,1.2,0.1,1.7,0.4c0.5,0.3,0.9,0.7,1.1,1.2c0.3,0.5,0.4,1,0.4,1.6c0,0.8-0.2,1.4-0.5,2.1
			c-0.3,0.6-0.8,1.1-1.4,1.5c-0.6,0.4-1.3,0.5-2.1,0.5C287.6,47.6,287,47.4,286.5,47.1z M289.6,45.9c0.4-0.2,0.6-0.5,0.9-0.9
			s0.3-0.8,0.3-1.3c0-0.6-0.2-1.1-0.5-1.4c-0.3-0.4-0.8-0.6-1.4-0.6c-0.5,0-0.9,0.1-1.2,0.3c-0.4,0.2-0.6,0.5-0.9,0.9
			c-0.2,0.4-0.3,0.8-0.3,1.3c0,0.6,0.2,1.1,0.5,1.4s0.8,0.6,1.4,0.6C288.8,46.2,289.2,46.1,289.6,45.9z"/>
		<path d="M293.6,47c-0.5-0.3-0.8-0.8-1-1.4l1.4-0.6c0.1,0.4,0.3,0.6,0.6,0.8c0.3,0.2,0.6,0.3,1,0.3c0.4,0,0.7-0.1,0.9-0.2
			c0.2-0.2,0.4-0.4,0.4-0.6c0-0.2-0.1-0.4-0.2-0.6c-0.2-0.2-0.4-0.3-0.8-0.3l-0.7-0.2c-0.5-0.1-1-0.4-1.3-0.7
			c-0.3-0.3-0.5-0.7-0.5-1.2c0-0.4,0.1-0.8,0.4-1.1c0.2-0.3,0.6-0.6,1-0.8c0.4-0.2,0.9-0.3,1.5-0.3c0.6,0,1.2,0.1,1.6,0.4
			c0.5,0.3,0.8,0.7,1,1.1l-1.4,0.5c-0.1-0.3-0.3-0.5-0.5-0.6c-0.2-0.1-0.5-0.2-0.8-0.2c-0.4,0-0.7,0.1-0.9,0.2
			c-0.2,0.1-0.3,0.3-0.3,0.5c0,0.2,0.1,0.3,0.2,0.4c0.2,0.1,0.4,0.2,0.6,0.3l0.9,0.2c0.5,0.1,1,0.4,1.3,0.7s0.5,0.7,0.5,1.2
			c0,0.7-0.3,1.3-0.8,1.7c-0.5,0.4-1.2,0.6-2.1,0.6C294.7,47.6,294.1,47.4,293.6,47z"/>
		<path d="M303.7,47.2c-0.4-0.3-0.8-0.6-1-1.1s-0.4-1-0.4-1.6c0-0.8,0.2-1.5,0.5-2.1c0.3-0.6,0.8-1.1,1.4-1.5c0.6-0.4,1.3-0.5,2-0.5
			c0.5,0,0.9,0.1,1.3,0.3c0.4,0.2,0.6,0.5,0.8,0.8h0.1l0.1-1l0.5-2.7h1.5l-1.7,9.6h-1.4l0.2-0.9h-0.1c-0.5,0.7-1.3,1.1-2.3,1.1
			C304.6,47.6,304.2,47.4,303.7,47.2z M306.9,45.9c0.4-0.2,0.7-0.5,0.9-1c0.2-0.4,0.3-0.9,0.3-1.4c0-0.6-0.2-1-0.5-1.3
			s-0.8-0.5-1.3-0.5c-0.5,0-0.9,0.1-1.2,0.3s-0.7,0.5-0.9,0.9c-0.2,0.4-0.3,0.9-0.3,1.4c0,0.6,0.2,1,0.5,1.4s0.8,0.5,1.3,0.5
			C306.1,46.2,306.5,46.1,306.9,45.9z"/>
		<path d="M312.1,47.1c-0.5-0.3-0.8-0.7-1.1-1.2c-0.3-0.5-0.4-1-0.4-1.6c0-0.7,0.2-1.4,0.5-2c0.3-0.6,0.8-1.1,1.4-1.5
			c0.6-0.4,1.3-0.6,2.1-0.6c0.6,0,1.1,0.1,1.6,0.4c0.4,0.3,0.8,0.6,1,1.1c0.2,0.4,0.3,0.9,0.3,1.4c0,0.4,0,0.8-0.1,1.1h-5.3
			c0,0.1,0,0.2,0,0.3c0,0.5,0.2,0.9,0.5,1.2c0.3,0.3,0.8,0.5,1.2,0.5c0.5,0,0.9-0.1,1.2-0.3c0.3-0.2,0.6-0.5,0.8-0.8l1.1,0.6
			c-0.7,1.2-1.8,1.8-3.3,1.8C313.1,47.6,312.6,47.4,312.1,47.1z M316.1,43.1V43c0-0.4-0.1-0.7-0.4-1c-0.3-0.3-0.7-0.4-1.2-0.4
			s-0.9,0.1-1.3,0.4c-0.4,0.3-0.6,0.7-0.8,1.1H316.1z"/>
		<path d="M323.5,47c-0.7-0.4-1.2-0.9-1.5-1.5c-0.4-0.7-0.6-1.4-0.6-2.3c0-1,0.2-1.9,0.8-2.8c0.5-0.9,1.2-1.6,2.1-2.1
			c0.9-0.5,1.9-0.8,3-0.8c0.7,0,1.4,0.1,2,0.4s1,0.7,1.4,1.2l-1.2,1c-0.3-0.4-0.6-0.7-1-0.9S327.5,39,327,39c-0.7,0-1.4,0.2-2.1,0.6
			c-0.6,0.4-1.1,0.9-1.5,1.5c-0.4,0.6-0.6,1.3-0.6,2c0,0.6,0.1,1.1,0.4,1.6s0.6,0.8,1.1,1.1c0.4,0.2,1,0.4,1.5,0.4
			c0.6,0,1.1-0.1,1.6-0.3c0.5-0.2,0.9-0.6,1.4-1l1,1.1c-0.6,0.6-1.2,1-1.9,1.3c-0.6,0.3-1.4,0.4-2.2,0.4
			C324.8,47.6,324.1,47.4,323.5,47z"/>
		<path d="M332.3,47.1c-0.5-0.3-0.9-0.7-1.1-1.2c-0.3-0.5-0.4-1-0.4-1.6c0-0.8,0.2-1.4,0.5-2.1c0.3-0.6,0.8-1.1,1.4-1.5
			c0.6-0.4,1.3-0.5,2.1-0.5c0.6,0,1.2,0.1,1.7,0.4c0.5,0.3,0.9,0.7,1.1,1.2c0.3,0.5,0.4,1,0.4,1.6c0,0.8-0.2,1.4-0.5,2.1
			c-0.3,0.6-0.8,1.1-1.4,1.5c-0.6,0.4-1.3,0.5-2.1,0.5C333.4,47.6,332.8,47.4,332.3,47.1z M335.4,45.9c0.4-0.2,0.6-0.5,0.9-0.9
			s0.3-0.8,0.3-1.3c0-0.6-0.2-1.1-0.5-1.4c-0.3-0.4-0.8-0.6-1.4-0.6c-0.5,0-0.9,0.1-1.2,0.3c-0.4,0.2-0.6,0.5-0.9,0.9
			c-0.2,0.4-0.3,0.8-0.3,1.3c0,0.6,0.2,1.1,0.5,1.4s0.8,0.6,1.4,0.6C334.6,46.2,335,46.1,335.4,45.9z"/>
		<path d="M341,41.4c0.2-0.3,0.5-0.6,0.9-0.8s0.8-0.3,1.3-0.3c0.7,0,1.2,0.2,1.6,0.6c0.4,0.4,0.6,0.9,0.6,1.5c0,0.3,0,0.6-0.1,0.9
			l-0.7,4.1h-1.5l0.7-4c0-0.2,0.1-0.4,0.1-0.6c0-0.3-0.1-0.6-0.3-0.8s-0.5-0.3-0.9-0.3c-0.5,0-1,0.2-1.3,0.5s-0.6,0.8-0.7,1.4
			l-0.7,3.7h-1.5l1.2-6.8h1.4L341,41.4L341,41.4z"/>
		<path d="M347.5,47c-0.3-0.3-0.5-0.7-0.5-1.2c0-0.2,0-0.5,0.1-0.7l0.6-3.3h-1.2l0.2-1.3h1.2l0.3-1.9h1.5l-0.3,1.9h1.7l-0.2,1.3
			h-1.7l-0.6,3.2c0,0.2,0,0.3,0,0.4c0,0.2,0.1,0.4,0.2,0.5c0.1,0.1,0.3,0.2,0.5,0.2c0.3,0,0.6-0.1,0.9-0.3l-0.2,1.4
			c-0.3,0.1-0.7,0.2-1.1,0.2C348.3,47.4,347.8,47.3,347.5,47z"/>
		<path d="M352.5,47.3c-0.3-0.2-0.6-0.4-0.8-0.8c-0.2-0.3-0.3-0.7-0.3-1.1c0-0.8,0.3-1.4,0.8-1.8c0.5-0.4,1.3-0.7,2.3-0.7
			c0.3,0,0.7,0,1,0.1c0.3,0.1,0.6,0.2,0.9,0.3l0.1-0.3c0-0.1,0-0.2,0-0.3c0-0.3-0.1-0.6-0.4-0.8c-0.3-0.2-0.6-0.3-1.1-0.3
			c-0.7,0-1.3,0.3-1.7,0.8l-1.1-0.8c0.3-0.4,0.8-0.7,1.3-1s1.1-0.3,1.7-0.3c0.9,0,1.5,0.2,2,0.6c0.5,0.4,0.7,1,0.7,1.6
			c0,0.2,0,0.4-0.1,0.7l-0.7,4.1h-1.4l0.1-0.8h-0.1c-0.2,0.3-0.5,0.6-0.9,0.8c-0.3,0.2-0.8,0.3-1.2,0.3
			C353.2,47.6,352.8,47.5,352.5,47.3z M355.4,45.8c0.4-0.3,0.6-0.8,0.7-1.3c-0.2-0.1-0.5-0.2-0.7-0.3s-0.6-0.1-0.9-0.1
			c-0.5,0-0.9,0.1-1.2,0.3s-0.4,0.5-0.4,0.9c0,0.3,0.1,0.5,0.3,0.7c0.2,0.2,0.5,0.3,0.8,0.3C354.6,46.3,355,46.2,355.4,45.8z"/>
		<path d="M360,47.1c-0.5-0.3-0.8-0.7-1.1-1.2c-0.3-0.5-0.4-1-0.4-1.6c0-0.7,0.2-1.4,0.5-2c0.3-0.6,0.8-1.1,1.4-1.5
			c0.6-0.4,1.3-0.5,2.1-0.5c0.7,0,1.4,0.2,1.8,0.5c0.5,0.4,0.8,0.8,1,1.4l-1.4,0.5c-0.1-0.3-0.3-0.6-0.6-0.8s-0.6-0.3-1-0.3
			c-0.4,0-0.8,0.1-1.2,0.3c-0.4,0.2-0.6,0.5-0.9,0.9c-0.2,0.4-0.3,0.8-0.3,1.3c0,0.6,0.2,1,0.5,1.4c0.3,0.4,0.8,0.6,1.3,0.6
			c0.4,0,0.8-0.1,1.1-0.3c0.3-0.2,0.6-0.5,0.8-0.8l1.2,0.6c-0.7,1.3-1.8,1.9-3.3,1.9C361,47.6,360.5,47.4,360,47.1z"/>
		<path d="M367.3,47c-0.3-0.3-0.5-0.7-0.5-1.2c0-0.2,0-0.5,0.1-0.7l0.6-3.3h-1.2l0.2-1.3h1.2l0.3-1.9h1.5l-0.3,1.9h1.7l-0.2,1.3
			h-1.7l-0.6,3.2c0,0.2,0,0.3,0,0.4c0,0.2,0.1,0.4,0.2,0.5c0.1,0.1,0.3,0.2,0.5,0.2c0.3,0,0.6-0.1,0.9-0.3l-0.2,1.4
			c-0.3,0.1-0.7,0.2-1.1,0.2C368,47.4,367.6,47.3,367.3,47z"/>
		<path d="M372.5,47.1c-0.5-0.3-0.9-0.7-1.1-1.2c-0.3-0.5-0.4-1-0.4-1.6c0-0.8,0.2-1.4,0.5-2.1c0.3-0.6,0.8-1.1,1.4-1.5
			c0.6-0.4,1.3-0.5,2.1-0.5c0.6,0,1.2,0.1,1.7,0.4c0.5,0.3,0.9,0.7,1.1,1.2c0.3,0.5,0.4,1,0.4,1.6c0,0.8-0.2,1.4-0.5,2.1
			c-0.3,0.6-0.8,1.1-1.4,1.5c-0.6,0.4-1.3,0.5-2.1,0.5C373.5,47.6,373,47.4,372.5,47.1z M375.5,45.9c0.4-0.2,0.6-0.5,0.9-0.9
			s0.3-0.8,0.3-1.3c0-0.6-0.2-1.1-0.5-1.4c-0.3-0.4-0.8-0.6-1.4-0.6c-0.5,0-0.9,0.1-1.2,0.3c-0.4,0.2-0.6,0.5-0.9,0.9
			c-0.2,0.4-0.3,0.8-0.3,1.3c0,0.6,0.2,1.1,0.5,1.4s0.8,0.6,1.4,0.6C374.7,46.2,375.1,46.1,375.5,45.9z"/>
	</g>
</g>
</svg>
