<?xml version="1.0" standalone="no"?>
<!DOCTYPE svg PUBLIC "-//W3C//DTD SVG 20010904//EN"
 "http://www.w3.org/TR/2001/REC-SVG-20010904/DTD/svg10.dtd">
<svg version="1.0" xmlns="http://www.w3.org/2000/svg"
 width="650.000000pt" height="650.000000pt" viewBox="0 0 650.000000 650.000000"
 preserveAspectRatio="xMidYMid meet">

<g transform="translate(0.000000,650.000000) scale(0.100000,-0.100000)"
fill="#000000" stroke="none">
<path d="M3189 5960 c-30 -23 -63 -48 -74 -56 -11 -8 -186 -136 -390 -285
-203 -148 -401 -293 -440 -321 -38 -29 -101 -75 -140 -103 -38 -28 -140 -102
-225 -165 -85 -62 -194 -142 -242 -178 l-88 -64 0 -1079 0 -1079 130 0 c72 0
130 2 130 4 0 8 41 202 46 218 4 13 -3 17 -33 20 l-38 3 0 893 0 893 32 30
c18 16 35 29 39 29 3 0 20 12 38 26 17 14 94 71 171 126 77 56 182 133 233
172 52 39 103 76 113 82 11 6 30 20 42 30 12 11 36 28 52 38 17 10 37 25 45
33 8 8 40 31 70 53 30 21 71 51 90 65 19 14 94 69 165 121 72 52 140 104 151
114 12 11 25 20 29 20 5 0 26 15 49 33 51 41 92 67 106 67 5 0 58 -35 116 -77
58 -43 116 -85 128 -93 13 -8 35 -24 50 -35 52 -40 176 -131 211 -155 20 -14
42 -30 48 -35 10 -9 195 -144 272 -199 11 -8 79 -58 150 -110 72 -53 190 -140
263 -194 73 -53 144 -105 158 -115 l24 -19 -2 -896 -3 -897 -33 -3 c-26 -3
-32 -7 -28 -20 5 -16 46 -210 46 -218 0 -2 59 -4 130 -4 l130 0 0 1079 0 1079
-219 159 -220 158 0 373 -1 372 -350 0 -350 0 0 -110 c0 -60 -2 -110 -5 -110
-3 0 -78 53 -166 118 -88 64 -173 126 -189 137 -15 11 -58 41 -93 68 -36 26
-67 47 -69 47 -3 0 -29 -18 -59 -40z"/>
<path d="M2827 4973 c-4 -3 -7 -89 -7 -190 l0 -183 188 2 187 3 3 188 2 187
-183 0 c-101 0 -187 -3 -190 -7z"/>
<path d="M3302 4793 l3 -188 188 -3 187 -2 -2 187 -3 188 -188 3 -187 2 2
-187z"/>
<path d="M2820 4310 l0 -190 189 0 190 0 1 190 1 190 -191 0 -190 0 0 -190z"/>
<path d="M3302 4313 l3 -188 188 -3 187 -2 0 190 0 190 -190 0 -190 0 2 -187z"/>
<path d="M2661 3730 c-124 -26 -281 -150 -398 -314 -120 -168 -233 -437 -284
-677 -18 -82 -23 -137 -23 -259 -1 -139 2 -161 22 -212 24 -60 75 -113 118
-124 14 -4 54 -4 89 -1 78 6 135 32 347 155 l157 92 41 -21 c83 -43 197 -38
275 14 61 40 101 96 117 164 14 58 24 63 128 63 102 0 117 -6 124 -52 13 -80
67 -151 149 -195 50 -28 189 -25 244 4 l43 23 157 -92 c213 -124 271 -149 348
-155 35 -3 75 -3 89 1 43 11 94 64 118 124 20 51 23 73 22 212 0 121 -5 177
-22 255 -34 153 -87 306 -158 453 -182 381 -432 585 -662 543 -78 -14 -144
-47 -228 -111 -82 -63 -120 -75 -229 -75 -106 1 -149 17 -248 93 -106 81 -228
114 -336 92z m79 -431 l0 -79 80 0 80 0 0 -70 c0 -49 -4 -70 -12 -71 -7 -1
-42 -2 -78 -2 l-65 -2 -5 -80 -5 -80 -70 0 -70 0 -3 83 -3 82 -79 0 -80 0 0
70 0 70 80 0 80 0 0 80 0 79 63 3 c34 2 68 1 75 -1 8 -2 12 -27 12 -82z m1134
70 c36 -28 36 -80 0 -108 -30 -24 -43 -26 -78 -10 -53 24 -54 102 -2 127 32
16 51 14 80 -9z m-155 -175 c12 -15 21 -34 21 -44 0 -10 -9 -29 -21 -44 -41
-52 -129 -22 -129 44 0 66 88 96 129 44z m330 0 c12 -15 21 -34 21 -44 0 -10
-9 -29 -21 -44 -41 -52 -129 -23 -129 44 0 65 88 96 129 44z m-175 -155 c33
-26 35 -73 4 -106 -53 -56 -147 6 -118 78 22 52 69 64 114 28z m-930 -267
c119 -70 126 -236 13 -310 -33 -22 -52 -27 -102 -27 -53 0 -68 5 -99 29 -96
73 -110 189 -33 272 58 63 150 78 221 36z m800 -10 c51 -35 78 -88 78 -153 -1
-60 -22 -100 -75 -143 -34 -27 -46 -31 -101 -31 -52 0 -70 5 -105 28 -97 64
-108 201 -23 280 65 62 154 69 226 19z"/>
<path d="M2824 2686 c-58 -25 -65 -103 -12 -140 42 -30 91 -17 116 31 18 33
15 59 -10 87 -30 32 -56 38 -94 22z"/>
<path d="M3609 2686 c-54 -26 -62 -94 -17 -136 58 -54 154 12 127 88 -15 43
-71 68 -110 48z"/>
<path d="M1902 1980 c-106 -16 -126 -55 -120 -230 6 -181 25 -194 292 -188
125 2 188 7 204 16 34 20 52 72 52 152 l0 70 -145 0 -145 0 0 -40 0 -40 80 0
c73 0 80 -2 80 -20 0 -31 -32 -40 -144 -40 -137 0 -146 7 -146 114 0 105 2
106 157 106 116 0 125 -1 130 -20 5 -17 14 -20 69 -20 l63 0 -6 38 c-8 55 -33
85 -84 99 -49 13 -255 15 -337 3z"/>
<path d="M2526 1968 c-8 -13 -59 -108 -115 -213 l-101 -190 67 -3 c37 -2 69 1
70 5 2 4 12 23 23 41 l20 32 130 0 129 0 23 -40 23 -40 68 0 68 0 -60 113
c-33 61 -84 157 -114 212 l-55 100 -80 3 c-75 3 -82 1 -96 -20z m137 -163 l37
-75 -81 0 c-44 0 -79 3 -77 8 27 57 74 142 78 142 3 0 22 -34 43 -75z"/>
<path d="M2950 1775 l0 -215 60 0 60 0 0 152 c0 94 4 148 9 143 5 -6 45 -73
88 -150 l79 -140 49 -3 50 -3 85 150 85 150 3 -149 3 -150 64 0 65 0 0 215 0
216 -102 -3 -103 -3 -70 -127 c-38 -70 -73 -130 -76 -133 -4 -4 -40 55 -80
129 l-73 136 -98 0 -98 0 0 -215z"/>
<path d="M3697 1983 c-4 -3 -7 -100 -7 -215 l0 -208 235 0 235 0 0 50 0 50
-170 0 -170 0 0 35 0 35 160 0 160 0 0 40 0 40 -160 0 -160 0 0 35 0 35 165 0
165 0 0 55 0 55 -223 0 c-123 0 -227 -3 -230 -7z"/>
<path d="M4200 1775 l0 -215 60 0 60 0 0 55 0 55 118 0 c78 0 122 -4 130 -12
7 -7 12 -31 12 -55 l0 -43 65 0 65 0 0 56 c0 47 -4 60 -28 83 l-27 28 28 26
c28 26 29 30 25 102 -6 126 -26 134 -315 135 l-193 0 0 -215z m378 93 c7 -7
12 -24 12 -38 0 -45 -15 -50 -147 -50 l-123 0 0 50 0 50 123 0 c82 0 127 -4
135 -12z"/>
<path d="M1860 1295 l0 -215 60 0 60 0 0 80 0 80 140 0 140 0 0 -80 0 -80 60
0 60 0 0 215 0 215 -60 0 -60 0 0 -80 0 -80 -140 0 -140 0 0 80 0 80 -60 0
-60 0 0 -215z"/>
<path d="M2541 1501 c-89 -16 -121 -93 -108 -257 13 -147 29 -157 262 -162
197 -3 256 7 289 51 19 26 21 42 21 160 0 203 -8 210 -255 213 -91 2 -185 -1
-209 -5z m323 -117 c12 -11 16 -36 16 -90 0 -109 -7 -114 -160 -114 -153 0
-160 5 -160 114 0 105 1 106 160 106 104 0 132 -3 144 -16z"/>
<path d="M3044 1495 c-4 -8 -4 -81 -2 -163 4 -165 12 -192 68 -230 34 -23 40
-23 210 -20 256 4 260 9 260 268 l0 160 -65 0 -65 0 0 -149 c0 -184 3 -181
-138 -181 -85 0 -95 2 -117 25 -24 23 -25 29 -25 165 l0 140 -60 0 c-45 0 -62
-4 -66 -15z"/>
<path d="M3696 1500 c-22 -4 -47 -17 -57 -28 -23 -29 -32 -95 -19 -143 18 -64
42 -74 205 -77 77 -1 150 -5 161 -7 28 -6 37 -31 18 -50 -12 -12 -40 -15 -130
-15 -103 0 -115 2 -126 20 -11 17 -24 20 -76 20 l-62 0 6 -42 c14 -89 50 -102
275 -96 220 5 249 21 249 134 0 96 -35 114 -219 114 -148 0 -184 9 -179 43 3
21 7 22 126 25 117 2 124 2 129 -18 5 -17 13 -20 70 -20 l65 0 -7 48 c-8 56
-29 80 -81 92 -46 11 -292 11 -348 0z"/>
<path d="M4187 1503 c-4 -3 -7 -100 -7 -215 l0 -208 235 0 235 0 0 50 0 50
-170 0 -170 0 0 35 0 35 160 0 160 0 0 40 0 40 -160 0 -160 0 0 35 0 35 165 0
165 0 0 55 0 55 -223 0 c-123 0 -227 -3 -230 -7z"/>
</g>
</svg>
